<svg width="336" height="302" viewBox="0 0 336 302" fill="none" xmlns="http://www.w3.org/2000/svg">
<rect x="1.08" y="0.36" width="334.08" height="300.478" rx="16.8513" stroke="#FA3F49" stroke-width="0.72"/>
<mask id="path-2-outside-1_12_3896" maskUnits="userSpaceOnUse" x="80.4" y="27.0378" width="144" height="247" fill="black">
<rect fill="white" x="80.4" y="27.0378" width="144" height="247"/>
<path d="M223.139 27.9609V273.038H156.151V51.4883L187.521 80.5708L81.9748 99.1966V46.9135L173.47 27.9609H223.139Z"/>
</mask>
<path d="M223.139 27.9609H223.859V27.2409H223.139V27.9609ZM223.139 273.038V273.758H223.859V273.038H223.139ZM156.151 273.038H155.431V273.758H156.151V273.038ZM156.151 51.4883L156.641 50.9603L155.431 49.839V51.4883H156.151ZM187.521 80.5708L187.646 81.2798L189.073 81.028L188.011 80.0428L187.521 80.5708ZM81.9748 99.1966H81.2548V100.055L82.0999 99.9057L81.9748 99.1966ZM81.9748 46.9135L81.8287 46.2085L81.2548 46.3274V46.9135H81.9748ZM173.47 27.9609V27.2409H173.396L173.324 27.2559L173.47 27.9609ZM223.139 27.9609H222.419V273.038H223.139H223.859V27.9609H223.139ZM223.139 273.038V272.318H156.151V273.038V273.758H223.139V273.038ZM156.151 273.038H156.871V51.4883H156.151H155.431V273.038H156.151ZM156.151 51.4883L155.662 52.0163L187.032 81.0988L187.521 80.5708L188.011 80.0428L156.641 50.9603L156.151 51.4883ZM187.521 80.5708L187.396 79.8617L81.8496 98.4876L81.9748 99.1966L82.0999 99.9057L187.646 81.2798L187.521 80.5708ZM81.9748 99.1966H82.6948V46.9135H81.9748H81.2548V99.1966H81.9748ZM81.9748 46.9135L82.1208 47.6186L173.616 28.6659L173.47 27.9609L173.324 27.2559L81.8287 46.2085L81.9748 46.9135ZM173.47 27.9609V28.6809H223.139V27.9609V27.2409H173.47V27.9609Z" fill="#FA3F49" mask="url(#path-2-outside-1_12_3896)"/>
</svg>
