<svg width="336" height="302" viewBox="0 0 336 302" fill="none" xmlns="http://www.w3.org/2000/svg">
<rect x="0.700027" y="0.36" width="334.08" height="300.478" rx="16.8513" stroke="#FA3F49" stroke-width="0.72"/>
<mask id="path-2-outside-1_12_3901" maskUnits="userSpaceOnUse" x="41.1201" y="21.0378" width="250" height="253" fill="black">
<rect fill="white" x="41.1201" y="21.0378" width="250" height="253"/>
<path d="M42.2302 116.189C43.5373 97.0181 49.8548 80.4618 61.1828 66.5197C72.5108 52.3597 87.5422 41.5763 106.277 34.1695C125.23 26.5449 146.579 22.7326 170.324 22.7326C192.98 22.7326 212.695 26.2181 229.469 33.1892C246.461 39.9425 259.641 49.4188 269.008 61.6181C278.375 73.8175 283.059 87.9775 283.059 104.098C283.059 116.515 279.683 128.17 272.929 139.062C266.176 149.737 255.611 160.302 241.233 170.759C226.855 180.998 208.011 191.781 184.702 203.109L117.387 236.766L114.773 219.448H289.921V273.038H47.4585V225.983L152.678 166.838C169.017 157.47 181.652 149.628 190.583 143.31C199.733 136.775 206.159 130.784 209.863 125.338C213.784 119.892 215.745 114.119 215.745 108.019C215.745 101.266 213.893 95.4932 210.19 90.7006C206.704 85.6901 201.367 81.7689 194.178 78.9369C186.989 76.1049 178.166 74.6889 167.71 74.6889C154.639 74.6889 143.964 76.6495 135.686 80.5708C127.408 84.2741 121.199 89.2846 117.06 95.6021C112.921 101.702 110.416 108.564 109.545 116.189H42.2302Z"/>
</mask>
<path d="M42.2302 116.189L41.5119 116.14L41.4594 116.909H42.2302V116.189ZM61.1828 66.5197L61.7416 66.9737L61.7451 66.9695L61.1828 66.5197ZM106.277 34.1695L106.542 34.8391L106.546 34.8375L106.277 34.1695ZM229.469 33.1892L229.193 33.8542L229.203 33.8583L229.469 33.1892ZM272.929 139.062L273.538 139.447L273.541 139.442L272.929 139.062ZM241.233 170.759L241.65 171.346L241.656 171.341L241.233 170.759ZM184.702 203.109L184.387 202.462L184.38 202.465L184.702 203.109ZM117.387 236.766L116.675 236.874L116.823 237.853L117.709 237.41L117.387 236.766ZM114.773 219.448V218.728H113.936L114.061 219.555L114.773 219.448ZM289.921 219.448H290.641V218.728H289.921V219.448ZM289.921 273.038V273.758H290.641V273.038H289.921ZM47.4585 273.038H46.7385V273.758H47.4585V273.038ZM47.4585 225.983L47.1057 225.355L46.7385 225.562V225.983H47.4585ZM152.678 166.838L153.031 167.465L153.036 167.462L152.678 166.838ZM190.583 143.31L190.999 143.898L191.002 143.896L190.583 143.31ZM209.863 125.338L209.279 124.917L209.273 124.925L209.267 124.933L209.863 125.338ZM210.19 90.7006L209.599 91.1118L209.609 91.1266L209.62 91.1408L210.19 90.7006ZM194.178 78.9369L194.442 78.267L194.178 78.9369ZM135.686 80.5708L135.98 81.228L135.987 81.2248L135.994 81.2214L135.686 80.5708ZM117.06 95.6021L117.656 96.0065L117.663 95.9967L117.06 95.6021ZM109.545 116.189V116.909H110.187L110.26 116.27L109.545 116.189ZM42.2302 116.189L42.9485 116.238C44.2463 97.2045 50.514 80.7923 61.7416 66.9737L61.1828 66.5197L60.624 66.0657C49.1957 80.1313 42.8283 96.8318 41.5119 116.14L42.2302 116.189ZM61.1828 66.5197L61.7451 66.9695C72.9863 52.9179 87.9103 42.205 106.542 34.8391L106.277 34.1695L106.012 33.5C87.1741 40.9476 72.0354 51.8014 60.6206 66.0699L61.1828 66.5197ZM106.277 34.1695L106.546 34.8375C125.4 27.2524 146.656 23.4526 170.324 23.4526V22.7326V22.0126C146.501 22.0126 125.059 25.8375 106.008 33.5016L106.277 34.1695ZM170.324 22.7326V23.4526C192.908 23.4526 212.525 26.9272 229.193 33.8541L229.469 33.1892L229.745 32.5244C212.865 25.5091 193.052 22.0126 170.324 22.0126V22.7326ZM229.469 33.1892L229.203 33.8583C246.097 40.5727 259.162 49.9782 268.437 62.0566L269.008 61.6181L269.579 61.1796C260.119 48.8593 246.825 39.3122 229.735 32.5201L229.469 33.1892ZM269.008 61.6181L268.437 62.0566C277.703 74.1239 282.339 88.1279 282.339 104.098H283.059H283.779C283.779 87.8271 279.048 73.5111 269.579 61.1796L269.008 61.6181ZM283.059 104.098H282.339C282.339 116.377 279.002 127.901 272.317 138.683L272.929 139.062L273.541 139.442C280.363 128.439 283.779 116.654 283.779 104.098H283.059ZM272.929 139.062L272.321 138.678C265.632 149.251 255.141 159.753 240.809 170.177L241.233 170.759L241.656 171.341C256.08 160.851 266.72 150.223 273.538 139.447L272.929 139.062ZM241.233 170.759L240.815 170.173C226.481 180.38 207.675 191.144 184.387 202.462L184.702 203.109L185.016 203.757C208.347 192.419 227.229 181.616 241.65 171.346L241.233 170.759ZM184.702 203.109L184.38 202.465L117.065 236.122L117.387 236.766L117.709 237.41L185.024 203.753L184.702 203.109ZM117.387 236.766L118.099 236.659L115.485 219.34L114.773 219.448L114.061 219.555L116.675 236.874L117.387 236.766ZM114.773 219.448V220.168H289.921V219.448V218.728H114.773V219.448ZM289.921 219.448H289.201V273.038H289.921H290.641V219.448H289.921ZM289.921 273.038V272.318H47.4585V273.038V273.758H289.921V273.038ZM47.4585 273.038H48.1785V225.983H47.4585H46.7385V273.038H47.4585ZM47.4585 225.983L47.8113 226.611L153.031 167.465L152.678 166.838L152.325 166.21L47.1057 225.355L47.4585 225.983ZM152.678 166.838L153.036 167.462C169.383 158.091 182.04 150.235 190.999 143.898L190.583 143.31L190.168 142.723C181.263 149.021 168.651 156.85 152.32 166.213L152.678 166.838ZM190.583 143.31L191.002 143.896C200.179 137.341 206.685 131.292 210.458 125.743L209.863 125.338L209.267 124.933C205.634 130.276 199.287 136.209 190.165 142.725L190.583 143.31ZM209.863 125.338L210.447 125.759C214.447 120.203 216.465 114.285 216.465 108.019H215.745H215.025C215.025 113.953 213.121 119.581 209.279 124.917L209.863 125.338ZM215.745 108.019H216.465C216.465 101.126 214.571 95.1936 210.759 90.2604L210.19 90.7006L209.62 91.1408C213.215 95.7929 215.025 101.406 215.025 108.019H215.745ZM210.19 90.7006L210.781 90.2894C207.195 85.1348 201.728 81.1373 194.442 78.267L194.178 78.9369L193.914 79.6068C201.006 82.4005 206.213 86.2454 209.599 91.1118L210.19 90.7006ZM194.178 78.9369L194.442 78.267C187.145 75.3925 178.227 73.9689 167.71 73.9689V74.6889V75.4089C178.106 75.4089 186.833 76.8173 193.914 79.6068L194.178 78.9369ZM167.71 74.6889V73.9689C154.575 73.9689 143.785 75.938 135.378 79.9201L135.686 80.5708L135.994 81.2214C144.144 77.361 154.703 75.4089 167.71 75.4089V74.6889ZM135.686 80.5708L135.392 79.9135C127.014 83.6618 120.687 88.7534 116.458 95.2076L117.06 95.6021L117.663 95.9967C121.712 89.8158 127.802 84.8865 135.98 81.228L135.686 80.5708ZM117.06 95.6021L116.465 95.1979C112.257 101.398 109.713 108.372 108.829 116.107L109.545 116.189L110.26 116.27C111.119 108.756 113.585 102.006 117.656 96.0064L117.06 95.6021ZM109.545 116.189V115.469H42.2302V116.189V116.909H109.545V116.189Z" fill="#FA3F49" mask="url(#path-2-outside-1_12_3901)"/>
</svg>
