<svg width="336" height="302" viewBox="0 0 336 302" fill="none" xmlns="http://www.w3.org/2000/svg">
<rect x="1.32008" y="0.36" width="334.08" height="300.478" rx="16.8513" stroke="#FA3F49" stroke-width="0.72"/>
<mask id="path-2-outside-1_12_3906" maskUnits="userSpaceOnUse" x="39.2001" y="21.0378" width="253" height="258" fill="black">
<rect fill="white" x="39.2001" y="21.0378" width="253" height="258"/>
<path d="M46.5582 107.039C47.8653 91.572 53.4204 77.5209 63.2235 64.8858C73.0265 52.0329 87.1865 41.7941 105.703 34.1695C124.22 26.5449 146.767 22.7326 173.345 22.7326C196.001 22.7326 215.716 25.5646 232.49 31.2286C249.482 36.8926 262.553 44.844 271.702 55.0827C281.07 65.3215 285.753 77.412 285.753 91.3541C285.753 102.246 282.377 112.267 275.623 121.417C269.088 130.566 258.631 137.864 244.254 143.31C230.094 148.539 211.577 151.044 188.703 150.826V143.964C210.052 143.093 228.351 144.618 243.6 148.539C258.849 152.46 270.504 158.886 278.564 167.818C286.843 176.75 290.982 188.078 290.982 201.802C290.982 216.616 286.189 229.795 276.604 241.341C267.019 252.887 253.076 261.928 234.777 268.463C216.696 274.998 194.476 278.266 168.116 278.266C142.628 278.266 120.408 274.781 101.455 267.81C82.5028 260.838 67.6893 250.926 57.0148 238.074C46.5582 225.003 41.0032 209.754 40.3496 192.326H107.664C109.407 203.218 115.071 211.605 124.656 217.487C134.459 223.369 148.946 226.31 168.116 226.31C185.544 226.31 198.833 223.696 207.982 218.467C217.35 213.239 222.033 205.941 222.033 196.574C222.033 191.128 220.508 186.553 217.459 182.85C214.627 179.146 209.507 176.423 202.1 174.68C194.694 172.72 184.346 171.739 171.057 171.739H128.904V125.992H171.057C188.267 125.992 200.249 123.704 207.002 119.13C213.973 114.555 217.459 108.455 217.459 100.83C217.459 92.5523 213.428 86.1258 205.368 81.5511C197.526 76.9763 185.653 74.6889 169.75 74.6889C152.758 74.6889 139.687 77.5209 130.538 83.1849C121.388 88.8489 115.942 96.8003 114.199 107.039H46.5582Z"/>
</mask>
<path d="M46.5582 107.039L45.8408 106.978L45.7748 107.759H46.5582V107.039ZM63.2235 64.8858L63.7923 65.3272L63.7959 65.3225L63.2235 64.8858ZM105.703 34.1695L105.978 34.8353V34.8353L105.703 34.1695ZM232.49 31.2286L232.26 31.9108L232.262 31.9117L232.49 31.2286ZM271.702 55.0828L271.165 55.5625L271.171 55.5688L271.702 55.0828ZM275.623 121.417L275.044 120.989L275.038 120.998L275.623 121.417ZM244.254 143.31L244.503 143.986L244.509 143.984L244.254 143.31ZM188.703 150.826H187.983V151.539L188.696 151.546L188.703 150.826ZM188.703 143.964L188.673 143.245L187.983 143.273V143.964H188.703ZM278.564 167.818L278.03 168.301L278.036 168.308L278.564 167.818ZM276.604 241.341L277.158 241.801L276.604 241.341ZM234.777 268.463L234.535 267.785L234.533 267.786L234.777 268.463ZM101.455 267.81L101.207 268.485L101.455 267.81ZM57.0148 238.074L56.4525 238.523L56.461 238.534L57.0148 238.074ZM40.3496 192.326V191.606H39.6021L39.6301 192.353L40.3496 192.326ZM107.664 192.326L108.375 192.212L108.278 191.606H107.664V192.326ZM124.656 217.487L124.279 218.101L124.286 218.104L124.656 217.487ZM207.982 218.467L207.631 217.839L207.625 217.842L207.982 218.467ZM217.459 182.85L216.887 183.287L216.895 183.297L216.903 183.307L217.459 182.85ZM202.1 174.68L201.916 175.376L201.926 175.379L201.935 175.381L202.1 174.68ZM128.904 171.739H128.184V172.459H128.904V171.739ZM128.904 125.992V125.272H128.184V125.992H128.904ZM207.002 119.13L206.607 118.528L206.598 118.533L207.002 119.13ZM205.368 81.5511L205.005 82.173L205.013 82.1772L205.368 81.5511ZM114.199 107.039V107.759H114.807L114.909 107.16L114.199 107.039ZM46.5582 107.039L47.2757 107.1C48.5707 91.7756 54.0718 77.8559 63.7923 65.3272L63.2235 64.8858L62.6546 64.4445C52.769 77.1859 47.1599 91.3684 45.8408 106.978L46.5582 107.039ZM63.2235 64.8858L63.7959 65.3225C73.5052 52.5926 87.5507 42.4228 105.978 34.8353L105.703 34.1695L105.429 33.5038C86.8224 41.1655 72.5479 51.4732 62.651 64.4492L63.2235 64.8858ZM105.703 34.1695L105.978 34.8353C124.384 27.2561 146.832 23.4526 173.345 23.4526V22.7326V22.0126C146.703 22.0126 124.057 25.8337 105.429 33.5038L105.703 34.1695ZM173.345 22.7326V23.4526C195.943 23.4526 215.577 26.2777 232.26 31.9108L232.49 31.2286L232.72 30.5464C215.854 24.8515 196.058 22.0126 173.345 22.0126V22.7326ZM232.49 31.2286L232.262 31.9117C249.17 37.5477 262.121 45.4416 271.165 55.5625L271.702 55.0828L272.239 54.603C262.984 44.2464 249.793 36.2375 232.718 30.5456L232.49 31.2286ZM271.702 55.0828L271.171 55.5688C280.416 65.6741 285.033 77.591 285.033 91.3541H285.753H286.473C286.473 77.233 281.723 64.9689 272.233 54.5967L271.702 55.0828ZM285.753 91.3541H285.033C285.033 102.085 281.71 111.958 275.044 120.989L275.623 121.417L276.203 121.844C283.043 112.577 286.473 102.407 286.473 91.3541H285.753ZM275.623 121.417L275.038 120.998C268.61 129.997 258.291 137.223 243.999 142.637L244.254 143.31L244.509 143.984C258.972 138.505 269.566 131.136 276.209 121.835L275.623 121.417ZM244.254 143.31L244.004 142.635C229.957 147.822 211.537 150.324 188.71 150.106L188.703 150.826L188.696 151.546C211.617 151.764 230.23 149.256 244.503 143.986L244.254 143.31ZM188.703 150.826H189.423V143.964H188.703H187.983V150.826H188.703ZM188.703 143.964L188.732 144.683C210.034 143.814 228.259 145.337 243.421 149.236L243.6 148.539L243.779 147.841C228.443 143.898 210.069 142.371 188.673 143.245L188.703 143.964ZM243.6 148.539L243.421 149.236C258.575 153.133 270.09 159.502 278.03 168.301L278.564 167.818L279.099 167.336C270.919 158.271 259.124 151.787 243.779 147.841L243.6 148.539ZM278.564 167.818L278.036 168.308C286.175 177.089 290.262 188.234 290.262 201.802H290.982H291.702C291.702 187.921 287.51 176.411 279.092 167.329L278.564 167.818ZM290.982 201.802H290.262C290.262 216.445 285.529 229.463 276.05 240.881L276.604 241.341L277.158 241.801C286.849 230.128 291.702 216.786 291.702 201.802H290.982ZM276.604 241.341L276.05 240.881C266.568 252.303 252.748 261.281 234.535 267.785L234.777 268.463L235.019 269.141C253.405 262.575 267.469 253.472 277.158 241.801L276.604 241.341ZM234.777 268.463L234.533 267.786C216.553 274.285 194.421 277.546 168.116 277.546V278.266V278.986C194.53 278.986 216.839 275.712 235.022 269.14L234.777 268.463ZM168.116 278.266V277.546C142.692 277.546 120.559 274.069 101.704 267.134L101.455 267.81L101.207 268.485C120.257 275.492 142.565 278.986 168.116 278.986V278.266ZM101.455 267.81L101.704 267.134C82.8456 260.197 68.1468 250.35 57.5687 237.614L57.0148 238.074L56.461 238.534C67.2318 251.503 82.1601 261.48 101.207 268.485L101.455 267.81ZM57.0148 238.074L57.5771 237.624C47.221 224.679 41.7171 209.579 41.0691 192.299L40.3496 192.326L39.6301 192.353C40.2892 209.928 45.8954 225.327 56.4526 238.523L57.0148 238.074ZM40.3496 192.326V193.046H107.664V192.326V191.606H40.3496V192.326ZM107.664 192.326L106.953 192.44C108.73 203.544 114.519 212.111 124.28 218.101L124.656 217.487L125.033 216.873C115.622 211.099 110.084 202.892 108.375 192.212L107.664 192.326ZM124.656 217.487L124.286 218.104C134.253 224.085 148.894 227.03 168.116 227.03V226.31V225.59C148.998 225.59 134.666 222.653 125.027 216.87L124.656 217.487ZM168.116 226.31V227.03C185.597 227.03 199.032 224.411 208.339 219.093L207.982 218.467L207.625 217.842C198.634 222.98 185.492 225.59 168.116 225.59V226.31ZM207.982 218.467L208.333 219.096C217.889 213.763 222.753 206.245 222.753 196.574H222.033H221.313C221.313 205.638 216.811 212.715 207.631 217.839L207.982 218.467ZM222.033 196.574H222.753C222.753 190.985 221.185 186.241 218.014 182.392L217.459 182.85L216.903 183.307C219.832 186.864 221.313 191.271 221.313 196.574H222.033ZM217.459 182.85L218.03 182.412C215.051 178.516 209.739 175.738 202.265 173.979L202.1 174.68L201.935 175.381C209.275 177.108 214.202 179.777 216.887 183.287L217.459 182.85ZM202.1 174.68L202.285 173.984C194.789 172 184.37 171.019 171.057 171.019V171.739V172.459C184.322 172.459 194.598 173.439 201.916 175.376L202.1 174.68ZM171.057 171.739V171.019H128.904V171.739V172.459H171.057V171.739ZM128.904 171.739H129.624V125.992H128.904H128.184V171.739H128.904ZM128.904 125.992V126.712H171.057V125.992V125.272H128.904V125.992ZM171.057 125.992V126.712C188.282 126.712 200.459 124.432 207.406 119.726L207.002 119.13L206.598 118.533C200.038 122.977 188.252 125.272 171.057 125.272V125.992ZM207.002 119.13L207.397 119.731C214.548 115.038 218.179 108.723 218.179 100.83H217.459H216.739C216.739 108.187 213.398 114.071 206.607 118.528L207.002 119.13ZM217.459 100.83H218.179C218.179 92.2577 213.977 85.6091 205.723 80.9249L205.368 81.5511L205.013 82.1772C212.88 86.6426 216.739 92.8469 216.739 100.83H217.459ZM205.368 81.5511L205.731 80.9291C197.724 76.2583 185.697 73.9689 169.75 73.9689V74.6889V75.4089C185.609 75.4089 197.328 77.6943 205.005 82.173L205.368 81.5511ZM169.75 74.6889V73.9689C152.695 73.9689 139.47 76.8085 130.159 82.5727L130.538 83.1849L130.917 83.7971C139.905 78.2333 152.821 75.4089 169.75 75.4089V74.6889ZM130.538 83.1849L130.159 82.5727C120.841 88.341 115.269 96.4676 113.49 106.918L114.199 107.039L114.909 107.16C116.616 97.133 121.936 89.3568 130.917 83.7971L130.538 83.1849ZM114.199 107.039V106.319H46.5582V107.039V107.759H114.199V107.039Z" fill="#FA3F49" mask="url(#path-2-outside-1_12_3906)"/>
</svg>
