<svg width="336" height="302" viewBox="0 0 336 302" fill="none" xmlns="http://www.w3.org/2000/svg">
<rect x="1.32008" y="0.36" width="334.08" height="300.478" rx="16.8513" stroke="#FA3F49" stroke-width="0.72"/>
<mask id="path-2-outside-1_12_3907" maskUnits="userSpaceOnUse" x="38.2001" y="27.0378" width="265" height="247" fill="black">
<rect fill="white" x="38.2001" y="27.0378" width="265" height="247"/>
<path d="M262.553 27.9609V273.038H195.565V57.6969H216.151L88.7115 198.534L88.3847 177.294H301.765V227.29H39.0425V179.582L176.939 27.9609H262.553Z"/>
</mask>
<path d="M262.553 27.9609H263.273V27.2409H262.553V27.9609ZM262.553 273.038V273.758H263.273V273.038H262.553ZM195.565 273.038H194.845V273.758H195.565V273.038ZM195.565 57.6969V56.9769H194.845V57.6969H195.565ZM216.151 57.6969L216.685 58.18L217.774 56.9769H216.151V57.6969ZM88.7115 198.534L87.9915 198.546L88.0196 200.372L89.2453 199.018L88.7115 198.534ZM88.3847 177.294V176.574H87.6535L87.6648 177.306L88.3847 177.294ZM301.765 177.294H302.485V176.574H301.765V177.294ZM301.765 227.29V228.01H302.485V227.29H301.765ZM39.0425 227.29H38.3225V228.01H39.0425V227.29ZM39.0425 179.582L38.5099 179.097L38.3225 179.303V179.582H39.0425ZM176.939 27.9609V27.2409H176.621L176.406 27.4765L176.939 27.9609ZM262.553 27.9609H261.833V273.038H262.553H263.273V27.9609H262.553ZM262.553 273.038V272.318H195.565V273.038V273.758H262.553V273.038ZM195.565 273.038H196.285V57.6969H195.565H194.845V273.038H195.565ZM195.565 57.6969V58.4169H216.151V57.6969V56.9769H195.565V57.6969ZM216.151 57.6969L215.618 57.2138L88.1776 198.051L88.7115 198.534L89.2453 199.018L216.685 58.18L216.151 57.6969ZM88.7115 198.534L89.4314 198.523L89.1046 177.283L88.3847 177.294L87.6648 177.306L87.9915 198.546L88.7115 198.534ZM88.3847 177.294V178.014H301.765V177.294V176.574H88.3847V177.294ZM301.765 177.294H301.045V227.29H301.765H302.485V177.294H301.765ZM301.765 227.29V226.57H39.0425V227.29V228.01H301.765V227.29ZM39.0425 227.29H39.7625V179.582H39.0425H38.3225V227.29H39.0425ZM39.0425 179.582L39.5752 180.066L177.472 28.4453L176.939 27.9609L176.406 27.4765L38.5099 179.097L39.0425 179.582ZM176.939 27.9609V28.6809H262.553V27.9609V27.2409H176.939V27.9609Z" fill="#FA3F49" mask="url(#path-2-outside-1_12_3907)"/>
</svg>
